<svg width="120" height="120" viewBox="0 0 120 120" xmlns="http://www.w3.org/2000/svg">
  <defs>
    <linearGradient id="hardGradient" x1="0%" y1="0%" x2="100%" y2="100%">
      <stop offset="0%" style="stop-color:#7b2cbf;stop-opacity:1" />
      <stop offset="100%" style="stop-color:#00d4ff;stop-opacity:1" />
    </linearGradient>
  </defs>
  
  <rect width="120" height="120" rx="20" fill="url(#hardGradient)" opacity="0.2"/>
  
  <g stroke="#7b2cbf" stroke-width="2" fill="none">
    <line x1="30" y1="23" x2="30" y2="97"/>
    <line x1="43.33" y1="23" x2="43.33" y2="97"/>
    <line x1="56.67" y1="23" x2="56.67" y2="97"/>
    <line x1="70" y1="23" x2="70" y2="97"/>
    <line x1="83.33" y1="23" x2="83.33" y2="97"/>
    <line x1="96.67" y1="23" x2="96.67" y2="97"/>
    
    <line x1="23" y1="30" x2="97" y2="30"/>
    <line x1="23" y1="43.33" x2="97" y2="43.33"/>
    <line x1="23" y1="56.67" x2="97" y2="56.67"/>
    <line x1="23" y1="70" x2="97" y2="70"/>
    <line x1="23" y1="83.33" x2="97" y2="83.33"/>
    <line x1="23" y1="96.67" x2="97" y2="96.67"/>
  </g>
  
  <g stroke="#00d4ff" stroke-width="4" fill="none">
    <line x1="46.67" y1="23" x2="46.67" y2="97"/>
    <line x1="73.33" y1="23" x2="73.33" y2="97"/>
    
    <line x1="23" y1="46.67" x2="97" y2="46.67"/>
    <line x1="23" y1="73.33" x2="97" y2="73.33"/>
  </g>
  
  <rect x="23" y="23" width="74" height="74" stroke="#7b2cbf" stroke-width="5" fill="none" rx="6"/>
  
  <circle cx="27" cy="27" r="2.5" fill="#7b2cbf"/>
  <circle cx="40" cy="37" r="2.5" fill="#00d4ff"/>
  <circle cx="60" cy="60" r="2.5" fill="#7b2cbf"/>
  <circle cx="80" cy="50" r="2.5" fill="#00d4ff"/>
  <circle cx="93" cy="83" r="2.5" fill="#7b2cbf"/>
</svg>
